<svg xmlns="http://www.w3.org/2000/svg" viewBox="0 0 128 128" role="img" aria-labelledby="title">
  <title id="title">GraphQL Inspector</title>
  <defs>
    <linearGradient id="tile" x1="18" y1="10" x2="110" y2="120" gradientUnits="userSpaceOnUse">
      <stop stop-color="#1b1f37"/>
      <stop offset="1" stop-color="#090b12"/>
    </linearGradient>
    <linearGradient id="graph" x1="24" y1="28" x2="104" y2="98" gradientUnits="userSpaceOnUse">
      <stop stop-color="#7b72ff"/>
      <stop offset="1" stop-color="#42d4ff"/>
    </linearGradient>
  </defs>

  <rect x="5" y="5" width="118" height="118" rx="27" fill="url(#tile)" stroke="#343a60" stroke-width="2"/>
  <path d="M37 36 75 28l20 27-9 31-35 12-24-27 10-35Z" fill="none" stroke="url(#graph)" stroke-width="7" stroke-linecap="round" stroke-linejoin="round"/>
  <path d="m37 36 49 50M75 28 51 98M27 71l68-16" fill="none" stroke="url(#graph)" stroke-width="5" stroke-linecap="round" opacity=".72"/>

  <g fill="#0d101b" stroke="url(#graph)" stroke-width="6">
    <circle cx="37" cy="36" r="7"/>
    <circle cx="75" cy="28" r="7"/>
    <circle cx="95" cy="55" r="7"/>
    <circle cx="86" cy="86" r="7"/>
    <circle cx="51" cy="98" r="7"/>
    <circle cx="27" cy="71" r="7"/>
  </g>

  <g>
    <circle cx="62" cy="61" r="22" fill="#0d101b" stroke="#eef0ff" stroke-width="7"/>
    <path d="m78 77 18 18" fill="none" stroke="#eef0ff" stroke-width="10" stroke-linecap="round"/>
    <circle cx="62" cy="61" r="6" fill="#42d4ff"/>
  </g>
</svg>
